<?xml version="1.0" encoding="UTF-8"?><svg id="_レイヤー_1" xmlns="http://www.w3.org/2000/svg" viewBox="0 0 66.95 67.03"><defs><style>.cls-1{fill:#fff;stroke-width:0px;}</style></defs><path class="cls-1" d="M7.38,67.02c-5.36.07-8.53-4.52-6.8-8.97,2.68-6.89,5.36-13.77,8.04-20.65,1.08-2.78.9-5.51-.19-8.26C5.74,22.36,3.05,15.57.44,8.75-.56,6.15.19,3.81,2.15,1.92,4.13.03,6.47-.61,9.02.66c11.17,5.53,22.32,11.1,33.47,16.66,6.54,3.26,13.09,6.51,19.63,9.77,2.67,1.33,4.73,3.17,4.82,6.42.09,3.2-1.94,5.04-4.5,6.32-17.68,8.85-35.38,17.65-53.08,26.45-.8.4-1.68.63-1.99.75Z"/></svg>